<svg width="24" height="24" viewBox="0 0 24 24" fill="none" xmlns="http://www.w3.org/2000/svg">
<path d="M2.01325 4.89844L4.9 7.78519L7.78675 4.89844L4.9 2.01169L2.01325 4.89844ZM19.6535 19.652C19.8488 19.4567 19.8488 19.1401 19.6535 18.9449L16.4716 15.7629C16.2763 15.5676 15.9597 15.5676 15.7645 15.7629C15.5692 15.9582 15.5692 16.2747 15.7645 16.47L18.5929 19.2984L15.7645 22.1269C15.5692 22.3221 15.5692 22.6387 15.7645 22.834C15.9597 23.0292 16.2763 23.0292 16.4716 22.834L19.6535 19.652ZM4.9 5.39844L17.45 5.39844L17.45 4.39844L4.9 4.39844L4.9 5.39844ZM17.45 11.4984H6.65V12.4984H17.45V11.4984ZM6.65 19.7984H19.3V18.7984H6.65V19.7984ZM2.5 15.6484C2.5 17.9404 4.35802 19.7984 6.65 19.7984V18.7984C4.9103 18.7984 3.5 17.3881 3.5 15.6484H2.5ZM6.65 11.4984C4.35802 11.4984 2.5 13.3565 2.5 15.6484H3.5C3.5 13.9087 4.9103 12.4984 6.65 12.4984V11.4984ZM20.5 8.44844C20.5 10.1329 19.1345 11.4984 17.45 11.4984V12.4984C19.6868 12.4984 21.5 10.6852 21.5 8.44844H20.5ZM17.45 5.39844C19.1345 5.39844 20.5 6.76397 20.5 8.44844H21.5C21.5 6.21168 19.6868 4.39844 17.45 4.39844L17.45 5.39844Z" fill="#FBBB21"/>
</svg>
