<svg width="24" height="24" viewBox="0 0 24 24" fill="none" xmlns="http://www.w3.org/2000/svg">
<rect x="2.5" y="8.5" width="19" height="13" rx="1.5" stroke="#FBBB21"/>
<line x1="3" y1="12.5" x2="21" y2="12.5" stroke="#FBBB21"/>
<circle cx="5.5" cy="10.5" r="0.5" fill="#FBBB21"/>
<circle cx="7.5" cy="10.5" r="0.5" fill="#FBBB21"/>
<circle cx="9.5" cy="10.5" r="0.5" fill="#FBBB21"/>
<path d="M17.32 2.85712C17.4194 2.59948 17.7089 2.4712 17.9665 2.57059L20.141 3.40946C20.3986 3.50885 20.5269 3.79828 20.4275 4.05591L15.8548 15.9092C15.8268 15.9816 15.7824 16.0465 15.725 16.0988L13.2076 18.3927C13.1467 18.4482 13.0485 18.4103 13.0407 18.3283L12.7161 14.938C12.7087 14.8607 12.7194 14.7828 12.7473 14.7104L17.32 2.85712Z" fill="white" stroke="#FBBB21"/>
<line x1="16.4846" y1="5.03351" x2="19.5921" y2="6.23231" stroke="#FBBB21"/>
<line x1="12.8909" y1="14.3577" x2="15.9984" y2="15.5565" stroke="#FBBB21"/>
<path d="M14.625 14.5391L17.925 6.03906" stroke="#FBBB21"/>
<path d="M8.29406 15.0537C8.28073 15.2504 8.27073 15.4404 8.26406 15.6237C8.26073 15.8071 8.25906 15.9471 8.25906 16.0437C8.25906 16.1137 8.26073 16.1804 8.26406 16.2437C8.2674 16.3071 8.27073 16.3604 8.27406 16.4037H8.15906C8.0824 16.0904 7.98906 15.8437 7.87906 15.6637C7.7724 15.4837 7.6574 15.3571 7.53406 15.2837C7.41406 15.2071 7.29406 15.1687 7.17406 15.1687H7.16906V18.0287C7.16906 18.1654 7.1824 18.2671 7.20906 18.3337C7.23906 18.4004 7.29406 18.4437 7.37406 18.4637C7.45406 18.4837 7.57073 18.4937 7.72406 18.4937V18.5938C7.6074 18.5904 7.44906 18.5871 7.24906 18.5837C7.0524 18.5804 6.84573 18.5787 6.62906 18.5787C6.4224 18.5787 6.2274 18.5804 6.04406 18.5837C5.86073 18.5871 5.7124 18.5904 5.59906 18.5938V18.4937C5.7524 18.4937 5.86906 18.4837 5.94906 18.4637C6.02906 18.4437 6.0824 18.4004 6.10906 18.3337C6.13906 18.2671 6.15406 18.1654 6.15406 18.0287V15.1687H6.14906C6.02906 15.1687 5.9074 15.2071 5.78406 15.2837C5.66406 15.3571 5.55073 15.4837 5.44406 15.6637C5.3374 15.8404 5.24406 16.0871 5.16406 16.4037H5.04906C5.05573 16.3604 5.05906 16.3071 5.05906 16.2437C5.0624 16.1804 5.06406 16.1137 5.06406 16.0437C5.06406 15.9471 5.06073 15.8071 5.05406 15.6237C5.05073 15.4404 5.0424 15.2504 5.02906 15.0537C5.18906 15.0571 5.36573 15.0604 5.55906 15.0637C5.7524 15.0671 5.94573 15.0687 6.13906 15.0687C6.3324 15.0687 6.5074 15.0687 6.66406 15.0687C6.82073 15.0687 6.99573 15.0687 7.18906 15.0687C7.3824 15.0687 7.57573 15.0671 7.76906 15.0637C7.9624 15.0604 8.1374 15.0571 8.29406 15.0537Z" fill="#FBBB21"/>
</svg>
