<svg width="24" height="24" viewBox="0 0 24 24" fill="none" xmlns="http://www.w3.org/2000/svg">
<path d="M16.3359 16.2393L15.9844 11.5052C15.8552 9.76433 14.5156 8.35644 12.7833 8.14081C10.775 7.89082 8.94443 9.31661 8.69501 11.325C8.47978 13.0581 9.51778 14.7023 11.1751 15.2533L15.6795 16.7508C16.0181 16.8633 16.3623 16.5951 16.3359 16.2393Z" stroke="#FBBB21"/>
<circle cx="12.3019" cy="11.6704" r="1" transform="rotate(-37.9209 12.3019 11.6704)" stroke="#FBBB21"/>
<path d="M5.92701 5.72877C4.89374 6.76204 4.16116 8.04828 3.79735 9.45011C3.66774 9.94951 4.06843 10.4062 4.58438 10.4062C4.95336 10.4062 5.28072 10.169 5.41394 9.82493C5.70825 9.06478 6.28715 7.7428 7 7C7.77915 6.18812 9.23009 5.53488 10.0347 5.21461C10.3758 5.07884 10.6094 4.75264 10.6094 4.38553C10.6094 3.86759 10.1505 3.46563 9.64931 3.59642C8.24623 3.96259 6.9597 4.69608 5.92701 5.72877Z" stroke="#FBBB21" stroke-linecap="round"/>
<path d="M18.6824 5.72877C19.7156 6.76204 20.4482 8.04828 20.812 9.45011C20.9416 9.94951 20.5409 10.4062 20.025 10.4062C19.656 10.4062 19.3287 10.169 19.1954 9.82493C18.9011 9.06478 18.3222 7.7428 17.6094 7C16.8302 6.18812 15.3793 5.53488 14.5747 5.21461C14.2336 5.07884 14 4.75264 14 4.38553C14 3.86759 14.4589 3.46563 14.9601 3.59642C16.3631 3.96259 17.6497 4.69608 18.6824 5.72877Z" stroke="#FBBB21" stroke-linecap="round"/>
<path d="M19.2917 19.3728C20.325 18.3395 21.0576 17.0533 21.4214 15.6515C21.551 15.1521 21.1503 14.6953 20.6344 14.6953C20.2654 14.6953 19.938 14.9325 19.8048 15.2766C19.5105 16.0368 18.9316 17.3588 18.2188 18.1016C17.4396 18.9134 15.9887 19.5667 15.184 19.887C14.8429 20.0227 14.6094 20.3489 14.6094 20.716C14.6094 21.234 15.0683 21.6359 15.5694 21.5051C16.9725 21.139 18.259 20.4055 19.2917 19.3728Z" stroke="#FBBB21" stroke-linecap="round"/>
<path d="M5.92698 18.0837C6.98401 19.1407 8.307 19.8843 9.74869 20.2413C10.1971 20.3524 10.6048 19.9915 10.5996 19.5296C10.5961 19.2116 10.3943 18.9295 10.0996 18.8101C9.32222 18.4953 7.81807 17.8181 7 17C6.18265 16.1827 5.50589 14.6804 5.19069 13.9024C5.07107 13.6072 4.78683 13.4062 4.46826 13.4062C4.01375 13.4062 3.66108 13.8083 3.76898 14.2498C4.12222 15.6953 4.86611 17.0228 5.92698 18.0837Z" stroke="#FBBB21" stroke-linecap="round"/>
</svg>
