<svg width="24" height="24" viewBox="0 0 24 24" fill="none" xmlns="http://www.w3.org/2000/svg">
<path fill-rule="evenodd" clip-rule="evenodd" d="M19.3607 2.01293C19.6103 1.89491 19.9084 2.00161 20.0264 2.25126L21.9497 6.31954C22.0677 6.56919 21.961 6.86725 21.7114 6.98527C21.4617 7.10329 21.1637 6.99659 21.0457 6.74694L19.6337 3.76024C18.7882 6.02789 18.0431 7.72434 17.3743 8.97404C16.6052 10.4113 15.9115 11.3073 15.2397 11.7864C14.8959 12.0316 14.5479 12.1748 14.194 12.2163C13.8394 12.2578 13.5123 12.1934 13.2168 12.0734C12.678 11.8547 12.1995 11.427 11.8024 11.0722C11.7848 11.0564 11.7672 11.0407 11.7499 11.0253C11.3034 10.6269 10.9498 10.3253 10.5958 10.1973C10.4344 10.1389 10.2846 10.1224 10.1316 10.1504C9.97604 10.1789 9.78365 10.2597 9.54903 10.4471C9.06601 10.833 8.46471 11.6213 7.72532 13.0871C7.21785 14.0931 6.65594 15.3963 6.02797 17.0668C6.81391 17.5307 7.34115 18.3863 7.34115 19.365C7.34115 20.8377 6.14724 22.0316 4.67448 22.0316C3.20172 22.0316 2.00781 20.8377 2.00781 19.365C2.00781 17.8922 3.20172 16.6983 4.67448 16.6983C4.81454 16.6983 4.95207 16.7091 5.0863 16.7299C5.72552 15.0282 6.30344 13.6855 6.83248 12.6367C7.58979 11.1354 8.26974 10.1891 8.9249 9.66579C9.25937 9.39861 9.60031 9.23112 9.95137 9.1668C10.305 9.10201 10.6351 9.14813 10.9359 9.2569C11.4981 9.46019 11.992 9.90103 12.3978 10.2632L12.4157 10.2791C12.8641 10.6793 13.2243 10.9972 13.593 11.1468C13.7632 11.2159 13.9203 11.2415 14.0776 11.2231C14.2354 11.2046 14.4268 11.1378 14.6591 10.9722C15.1393 10.6297 15.7443 9.90063 16.4927 8.50221C17.1306 7.31005 17.8546 5.66703 18.6867 3.43769L15.7198 4.8403C15.4702 4.95832 15.1721 4.85162 15.0541 4.60197C14.936 4.35232 15.0428 4.05426 15.2924 3.93624L19.3607 2.01293Z" fill="#FBBB21"/>
</svg>
