<svg width="24" height="24" viewBox="0 0 24 24" fill="none" xmlns="http://www.w3.org/2000/svg">
<path d="M6.30782 19.6839H8.7876C9.11092 19.6839 9.43226 19.7225 9.74569 19.7997L12.3659 20.4388C12.9344 20.5779 13.5267 20.5913 14.1012 20.4794L16.9982 19.9137C17.7634 19.7641 18.4675 19.3962 19.0191 18.8576L21.0688 16.8564C21.6541 16.2859 21.6541 15.36 21.0688 14.7886C20.5419 14.274 19.7073 14.2161 19.1111 14.6525L16.7223 16.4016C16.3802 16.6527 15.9639 16.7878 15.5358 16.7878H13.2291H14.6974C15.5249 16.7878 16.1953 16.1332 16.1953 15.3252V15.0327C16.1953 14.3618 15.7276 13.7769 15.0612 13.6147L12.795 13.0615C12.4262 12.9717 12.0485 12.9263 11.6688 12.9263C10.7522 12.9263 9.09312 13.688 9.09312 13.688L6.30782 14.8571M2.50781 14.4519V19.9822C2.50781 20.5162 2.50781 20.7832 2.61135 20.9872C2.70244 21.1666 2.84777 21.3124 3.02652 21.4039C3.22974 21.5078 3.49577 21.5078 4.02781 21.5078H4.78782C5.31986 21.5078 5.58589 21.5078 5.78911 21.4039C5.96786 21.3124 6.11319 21.1666 6.20428 20.9872C6.30782 20.7832 6.30782 20.5162 6.30782 19.9822V14.4519C6.30782 13.9179 6.30782 13.6509 6.20428 13.447C6.11319 13.2675 5.96786 13.1217 5.78911 13.0303C5.58589 12.9263 5.31986 12.9263 4.78782 12.9263H4.02781C3.49577 12.9263 3.22974 12.9263 3.02652 13.0303C2.84777 13.1217 2.70244 13.2675 2.61135 13.447C2.50781 13.6509 2.50781 13.9179 2.50781 14.4519ZM16.9397 3.95609C16.3727 2.7653 15.0655 2.13446 13.7942 2.74335C12.523 3.35225 11.9814 4.79624 12.5137 6.06386C12.8426 6.84728 13.785 8.36863 14.457 9.41655C14.7053 9.80374 14.8294 9.99733 15.0108 10.1106C15.1663 10.2077 15.361 10.2601 15.5441 10.254C15.7576 10.2469 15.9615 10.1416 16.3694 9.93086C17.4734 9.36056 19.0474 8.51599 19.7226 8.0026C20.815 7.1719 21.0857 5.64503 20.2678 4.48431C19.4498 3.32358 18.0239 3.20937 16.9397 3.95609Z" stroke="#FBBB21" stroke-linecap="round" stroke-linejoin="round"/>
</svg>
