<svg width="24" height="24" viewBox="0 0 24 24" fill="none" xmlns="http://www.w3.org/2000/svg">
<path d="M13.5631 7.22806C13.2999 7.58649 12.9365 7.87723 12.5191 8.06351C12.1017 8.2498 11.6489 8.32326 11.218 8.27462C10.7871 8.22598 10.3974 8.05741 10.0983 7.79023C9.79912 7.52306 9.60393 7.16927 9.53737 6.77361C9.47082 6.37796 9.53589 5.9582 9.72436 5.56743C9.91283 5.17665 10.2162 4.83241 10.5962 4.57823C10.9762 4.32406 11.4156 4.17136 11.859 4.13945" stroke="#FBBB21" stroke-linecap="round"/>
<path d="M9.14062 7.13672L11.9754 5.56539" stroke="#FBBB21" stroke-linecap="round"/>
<path d="M9.67969 8.11719L12.5144 6.54586" stroke="#FBBB21" stroke-linecap="round"/>
<mask id="path-4-inside-1_281_863" fill="white">
<path d="M11.571 2.19922C10.6195 2.19922 9.68825 2.5258 8.94879 3.11887C8.22067 3.70286 7.70693 4.51942 7.5024 5.41812C7.45231 5.63807 7.592 5.85655 7.81442 5.90603C8.03672 5.95556 8.25776 5.81742 8.3078 5.59747C8.64838 4.1015 10.0207 3.01567 11.571 3.01567C13.4158 3.01567 14.9166 4.49993 14.9166 6.32422C14.9166 8.1485 13.4158 9.63276 11.571 9.63276C10.0207 9.63276 8.64833 8.54699 8.30785 7.05097C8.25776 6.83107 8.03722 6.69288 7.81442 6.74241C7.592 6.79188 7.45231 7.01037 7.50234 7.23032C7.70698 8.12907 8.22067 8.94564 8.94879 9.52956C9.68825 10.1226 10.6195 10.4492 11.571 10.4492C13.871 10.4492 15.7422 8.59875 15.7422 6.32422C15.7422 4.04969 13.871 2.19922 11.571 2.19922Z"/>
</mask>
<path d="M8.94879 3.11887L8.32313 2.33878L8.32312 2.33878L8.94879 3.11887ZM7.5024 5.41812L8.47744 5.64015L8.47746 5.64003L7.5024 5.41812ZM7.81442 5.90603L8.03189 4.92997L8.03156 4.92989L7.81442 5.90603ZM8.3078 5.59747L7.33275 5.37548L7.3327 5.37567L8.3078 5.59747ZM8.30785 7.05097L9.28292 6.82906L9.28288 6.82889L8.30785 7.05097ZM7.81442 6.74241L7.5974 5.76624L7.59727 5.76627L7.81442 6.74241ZM7.50234 7.23032L6.52725 7.45212L6.5273 7.45233L7.50234 7.23032ZM8.94879 9.52956L9.57445 8.74947L9.57442 8.74944L8.94879 9.52956ZM11.571 1.19922C10.393 1.19922 9.24081 1.60277 8.32313 2.33878L9.57445 3.89897C10.1357 3.44883 10.8461 3.19922 11.571 3.19922V1.19922ZM8.32312 2.33878C7.42134 3.06205 6.78267 4.07426 6.52733 5.19621L8.47746 5.64003C8.63118 4.96458 9.02 4.34366 9.57445 3.89896L8.32312 2.33878ZM6.52736 5.19609C6.35215 5.9655 6.84295 6.71437 7.59727 6.88217L8.03156 4.92989C8.34106 4.99874 8.55247 5.31064 8.47744 5.64015L6.52736 5.19609ZM7.59694 6.8821C8.34713 7.04925 9.1086 6.58549 9.28289 5.81926L7.3327 5.37567C7.40693 5.04934 7.72631 4.86188 8.03189 4.92997L7.59694 6.8821ZM9.28284 5.81946C9.51826 4.78544 10.4805 4.01567 11.571 4.01567V2.01567C9.56104 2.01567 7.77851 3.41756 7.33275 5.37548L9.28284 5.81946ZM11.571 4.01567C12.874 4.01567 13.9166 5.06268 13.9166 6.32422H15.9166C15.9166 3.93719 13.9575 2.01567 11.571 2.01567V4.01567ZM13.9166 6.32422C13.9166 7.58576 12.874 8.63276 11.571 8.63276V10.6328C13.9575 10.6328 15.9166 8.71125 15.9166 6.32422H13.9166ZM11.571 8.63276C10.4804 8.63276 9.51823 7.86302 9.28292 6.82906L7.33278 7.27289C7.77842 9.23096 9.56102 10.6328 11.571 10.6328V8.63276ZM9.28288 6.82889C9.10854 6.06348 8.3483 5.59931 7.5974 5.76624L8.03143 7.71858C7.72614 7.78645 7.40699 7.59867 7.33282 7.27305L9.28288 6.82889ZM7.59727 5.76627C6.84292 5.93408 6.35228 6.68288 6.52725 7.45212L8.47744 7.00852C8.55235 7.33785 8.34108 7.64969 8.03156 7.71855L7.59727 5.76627ZM6.5273 7.45233C6.78274 8.57421 7.4213 9.58642 8.32316 10.3097L9.57442 8.74944C9.02004 8.30485 8.63122 7.68394 8.47739 7.00831L6.5273 7.45233ZM8.32313 10.3097C9.24081 11.0457 10.393 11.4492 11.571 11.4492V9.44922C10.8461 9.44922 10.1357 9.1996 9.57445 8.74947L8.32313 10.3097ZM11.571 11.4492C14.4128 11.4492 16.7422 9.16151 16.7422 6.32422H14.7422C14.7422 8.036 13.3292 9.44922 11.571 9.44922V11.4492ZM16.7422 6.32422C16.7422 3.48693 14.4128 1.19922 11.571 1.19922V3.19922C13.3292 3.19922 14.7422 4.61244 14.7422 6.32422H16.7422Z" fill="#FBBB21" mask="url(#path-4-inside-1_281_863)"/>
<path d="M12.9922 15.5L10.9922 15.5" stroke="#FBBB21" stroke-linecap="round"/>
<path d="M3.32774 10H20.6723C20.8533 10 21 10.1302 21 10.2909V11.0666C21 11.3672 20.8009 11.7359 20.5369 11.9241L15.2894 15.4269C15.086 15.5719 14.9009 15.9149 14.9009 16.1464V19.1506C14.9009 19.3112 14.7542 19.4414 14.5731 19.4414L9.53941 21.4922C9.35836 21.4922 9.21166 21.362 9.21166 21.2013V16.1464C9.21166 15.9149 9.02647 15.5719 8.82318 15.4269L3.46308 11.9241C3.19909 11.7359 3 11.3672 3 11.0666V10.2909C3 10.1302 3.1467 10 3.32774 10Z" stroke="#FBBB21"/>
</svg>
