<svg width="24" height="24" viewBox="0 0 24 24" fill="none" xmlns="http://www.w3.org/2000/svg">
<g clip-path="url(#clip0_286_266)">
<path d="M16.3585 4.28413L16.2497 4.18077C13.892 1.94045 10.0553 1.97897 7.64582 4.26717C5.52466 6.28154 5.1707 9.43285 6.80423 11.7598L11.5757 18.5568C11.7759 18.8419 12.2173 18.8356 12.4214 18.5447L17.0776 11.9083C18.774 9.4903 18.4724 6.29283 16.3585 4.28413Z" stroke="#FBBB21"/>
<ellipse cx="12.0144" cy="8.38031" rx="1.56124" ry="1.56" stroke="#FBBB21"/>
<path d="M15.2871 18.0139C16.2045 18.2607 16.8789 18.6032 17.2148 18.9928C17.5507 19.3824 17.5311 19.7994 17.1589 20.1849C16.7866 20.5703 16.0805 20.9047 15.1404 21.1407C14.2004 21.3767 13.0739 21.5024 11.9204 21.5C10.7669 21.4975 9.6448 21.3671 8.71275 21.1272C7.78069 20.8873 7.0859 20.55 6.72666 20.163C6.36741 19.776 6.3619 19.3589 6.71089 18.9707C7.05989 18.5826 7.74573 18.243 8.6714 18" stroke="#FBBB21" stroke-linecap="round"/>
</g>
<defs>
<clipPath id="clip0_286_266">
<rect width="24" height="24" fill="white"/>
</clipPath>
</defs>
</svg>
