<svg width="24" height="24" viewBox="0 0 24 24" fill="none" xmlns="http://www.w3.org/2000/svg">
<g clip-path="url(#clip0_169_692)">
<path fill-rule="evenodd" clip-rule="evenodd" d="M9.14622 8.40884C8.7637 7.67402 9.04929 6.76823 9.78412 6.3857C10.5189 6.00318 11.4247 6.28877 11.8073 7.0236L12.7306 8.79729C13.1127 8.38858 13.7091 8.21111 14.2783 8.39059C14.5294 8.46976 14.7529 8.6128 14.9286 8.80277C15.3084 8.36442 15.9257 8.1686 16.5141 8.3541C16.7652 8.43327 16.9887 8.57631 17.1644 8.76629C17.5441 8.32793 18.1615 8.13211 18.7499 8.31762C19.1293 8.43725 19.4456 8.7027 19.6293 9.05557L21.6378 12.9138C21.7453 13.1204 21.8033 13.3491 21.8071 13.582L21.8366 15.3907C21.8374 15.4387 21.8493 15.4858 21.8715 15.5284C22.2053 16.1697 21.9561 16.9601 21.3148 17.2939L21.1454 17.3821C20.9005 17.5096 20.8053 17.8116 20.9328 18.0565L21.8563 19.8305C22.2388 20.5653 21.9532 21.4711 21.2184 21.8537C20.4835 22.2362 19.5778 21.9506 19.1952 21.2158L18.2717 19.4417C18.1442 19.1968 17.8423 19.1016 17.5974 19.2291L17.3376 19.3644C16.7462 19.6722 16.0173 19.4424 15.7095 18.851C15.6841 18.8023 15.6404 18.7657 15.588 18.7491L13.434 18.07C13.1747 17.9882 12.9425 17.8375 12.7623 17.634L10.5509 15.1378C10.2242 14.7689 10.1149 14.2556 10.2631 13.7856C10.4346 13.2415 10.907 12.8757 11.4392 12.8135L9.14622 8.40884ZM12.0123 13.9146L11.7223 13.8232C11.51 13.7562 11.2837 13.874 11.2168 14.0863C11.1742 14.2213 11.2056 14.3687 11.2995 14.4747L13.5108 16.9709C13.5709 17.0388 13.6483 17.089 13.7347 17.1163L15.8887 17.7954C16.1941 17.8917 16.4486 18.1053 16.5965 18.3893C16.6493 18.4907 16.7744 18.5302 16.8758 18.4774L17.1356 18.3421C17.8704 17.9596 18.7762 18.2452 19.1587 18.98L20.0822 20.754C20.2098 20.999 20.5117 21.0942 20.7566 20.9667C21.0016 20.8391 21.0968 20.5372 20.9693 20.2923L20.0458 18.5183C19.6632 17.7834 19.9488 16.8776 20.6837 16.4951L20.8531 16.4069C21.0044 16.3281 21.0633 16.1415 20.9845 15.9901C20.8906 15.8099 20.8401 15.6103 20.8367 15.4071L20.8072 13.5983C20.806 13.5207 20.7866 13.4444 20.7508 13.3756L18.7423 9.51732C18.6811 9.39969 18.5756 9.31121 18.4492 9.27134C18.1858 9.1883 17.905 9.33448 17.822 9.59784L17.7597 9.79536L18.5875 11.3857C18.715 11.6306 18.6199 11.9325 18.3749 12.0601C18.13 12.1876 17.828 12.0924 17.7005 11.8474L16.5065 9.55381C16.4453 9.43618 16.3399 9.3477 16.2134 9.30782C15.95 9.22478 15.6692 9.37097 15.5862 9.63433L15.5239 9.83185L16.8135 12.3092C16.941 12.5541 16.8458 12.856 16.6009 12.9836C16.3559 13.1111 16.054 13.0159 15.9265 12.7709L14.2708 9.59029C14.2095 9.47267 14.1041 9.38418 13.9776 9.34431C13.7143 9.26127 13.4334 9.40745 13.3504 9.67081L13.2881 9.86834L15.0395 13.2327C15.167 13.4776 15.0718 13.7795 14.8269 13.9071C14.5819 14.0346 14.28 13.9394 14.1525 13.6944L10.9202 7.48535C10.7927 7.2404 10.4908 7.14521 10.2459 7.27271C10.0009 7.40022 9.90573 7.70215 10.0332 7.94709L13.2655 14.1562C13.393 14.4011 13.2978 14.703 13.0528 14.8305C12.8079 14.9581 12.506 14.8629 12.3785 14.6179L12.0123 13.9146Z" fill="#FBBB21"/>
<path fill-rule="evenodd" clip-rule="evenodd" d="M4.64428 6.22792C4.37083 6.18949 4.1803 5.93665 4.21873 5.6632C4.33758 4.81758 4.69457 4.02324 5.24802 3.37294C5.80147 2.72264 6.52852 2.24324 7.34425 1.99073C7.60805 1.90907 7.88809 2.05672 7.96975 2.32051C8.0514 2.5843 7.90376 2.86435 7.63996 2.946C7.0055 3.1424 6.44002 3.51527 6.00956 4.02106C5.5791 4.52685 5.30144 5.14467 5.209 5.80237C5.17057 6.07583 4.91774 6.26635 4.64428 6.22792Z" fill="#FBBB21"/>
<path fill-rule="evenodd" clip-rule="evenodd" d="M10.7376 2.82718C10.9076 2.60958 11.2219 2.571 11.4395 2.74101C12.1124 3.26674 12.6218 3.97308 12.9082 4.77752C13.1947 5.58197 13.2463 6.45132 13.0572 7.28403C12.996 7.55331 12.7281 7.722 12.4588 7.66083C12.1895 7.59965 12.0208 7.33176 12.082 7.06248C12.2292 6.41482 12.189 5.73866 11.9662 5.11298C11.7434 4.48729 11.3472 3.93792 10.8238 3.52902C10.6062 3.35901 10.5676 3.04479 10.7376 2.82718Z" fill="#FBBB21"/>
<path fill-rule="evenodd" clip-rule="evenodd" d="M10.6337 9.80818C10.7372 10.0642 10.6135 10.3556 10.3574 10.4591C9.56568 10.779 8.69926 10.867 7.85936 10.7128C7.01946 10.5587 6.24076 10.1687 5.61421 9.58853C5.41159 9.40091 5.39944 9.08456 5.58706 8.88194C5.77469 8.67933 6.09104 8.66718 6.29365 8.8548C6.78097 9.30606 7.38662 9.60935 8.03988 9.72925C8.69313 9.84914 9.36701 9.78069 9.98282 9.53189C10.2389 9.42844 10.5303 9.55214 10.6337 9.80818Z" fill="#FBBB21"/>
</g>
<defs>
<clipPath id="clip0_169_692">
<rect width="24" height="24" fill="white"/>
</clipPath>
</defs>
</svg>
