<svg width="24" height="24" viewBox="0 0 24 24" fill="none" xmlns="http://www.w3.org/2000/svg">
<g clip-path="url(#clip0_281_888)">
<path d="M15.8655 14.0153C15.6916 13.8008 15.3767 13.7679 15.1622 13.9418C14.9477 14.1158 14.9149 14.4306 15.0888 14.6451L15.8655 14.0153ZM12.6065 7.82204L17.8168 14.1397L18.5883 13.5035L13.3779 7.18578L12.6065 7.82204ZM16.7043 15.0496L15.8655 14.0153L15.0888 14.6451L15.9276 15.6795L16.7043 15.0496ZM17.7151 15.1551C17.4068 15.4051 16.9543 15.3579 16.7043 15.0496L15.9276 15.6795C16.5254 16.4167 17.6077 16.5297 18.345 15.9318L17.7151 15.1551ZM17.8168 14.1397C18.0708 14.4477 18.0251 14.9037 17.7151 15.1551L18.345 15.9318C19.0865 15.3305 19.1958 14.24 18.5883 13.5035L17.8168 14.1397Z" fill="#FBBB21"/>
<path d="M15.4639 14.3356L16.2996 15.366C16.7252 15.8909 16.6448 16.6615 16.1199 17.0872V17.0872C15.595 17.5128 14.8244 17.4324 14.3987 16.9075L13.5631 15.8771" stroke="#FBBB21" stroke-linecap="round"/>
<path d="M12.0554 17.0948C11.8815 16.8804 11.5666 16.8475 11.3521 17.0214C11.1377 17.1954 11.1048 17.5102 11.2787 17.7247L12.0554 17.0948ZM10.8685 19.5167L10.5536 19.1284L9.77686 19.7582L10.0918 20.1466L10.8685 19.5167ZM11.2787 17.7247L12.1143 18.7551L12.891 18.1253L12.0554 17.0948L11.2787 17.7247ZM10.9902 19.6668L10.8685 19.5167L10.0918 20.1466L10.2135 20.2966L10.9902 19.6668ZM12.0081 19.773C11.6976 20.0248 11.2419 19.9772 10.9902 19.6668L10.2135 20.2966C10.8131 21.036 11.8985 21.1493 12.6379 20.5497L12.0081 19.773ZM12.1143 18.7551C12.3661 19.0656 12.3185 19.5213 12.0081 19.773L12.6379 20.5497C13.3773 19.9501 13.4906 18.8646 12.891 18.1253L12.1143 18.7551Z" fill="#FBBB21"/>
<path d="M13.5655 15.8707L14.4011 16.9011C14.8268 17.426 14.7464 18.1966 14.2214 18.6223V18.6223C13.6965 19.048 12.9259 18.9675 12.5003 18.4426L11.6646 17.4122" stroke="#FBBB21" stroke-linecap="round"/>
<path d="M14.576 7.12758C14.7905 6.95364 14.8233 6.63877 14.6494 6.42429C14.4755 6.20981 14.1606 6.17694 13.9461 6.35087L14.576 7.12758ZM19.8015 12.4541L19.4759 12.0747L19.8015 12.4541ZM9.7195 8.32967L13.6754 5.12165L13.0455 4.34495L9.08964 7.55296L9.7195 8.32967ZM19.4759 12.0747L17.6744 13.6205L18.3256 14.3795L20.1271 12.8336L19.4759 12.0747ZM11.0581 9.98037L14.576 7.12758L13.9461 6.35087L10.4283 9.20367L11.0581 9.98037ZM8.86018 9.75092C9.40377 10.4212 10.3878 10.524 11.0581 9.98037L10.4283 9.20367C10.1869 9.39939 9.83261 9.3624 9.63689 9.12105L8.86018 9.75092ZM20.0442 5.78651C21.5884 7.69074 21.3365 10.4781 19.4759 12.0747L20.1271 12.8336C22.3986 10.8844 22.7061 7.48143 20.8209 5.15664L20.0442 5.78651ZM13.6754 5.12165C15.6177 3.54656 18.4691 3.84422 20.0442 5.78651L20.8209 5.15664C18.8979 2.7854 15.4168 2.42199 13.0455 4.34495L13.6754 5.12165ZM9.08964 7.55296C8.41932 8.09655 8.3166 9.08061 8.86018 9.75092L9.63689 9.12105C9.44116 8.8797 9.47815 8.52539 9.7195 8.32967L9.08964 7.55296Z" fill="#FBBB21"/>
<path d="M3.79536 11.5782L3.75372 11.5269C2.05167 9.42802 2.37333 6.34677 4.47218 4.64471V4.64471C6.57103 2.94265 9.65227 3.26432 11.3543 5.36317L11.8422 5.96475" stroke="#FBBB21"/>
<rect x="5.89844" y="10.4883" width="2.78014" height="3.83213" rx="1.39007" transform="rotate(50.9422 5.89844 10.4883)" stroke="#FBBB21"/>
<rect x="7.30469" y="13.6758" width="2.77512" height="3.01535" rx="1.38756" transform="rotate(50.9422 7.30469 13.6758)" stroke="#FBBB21"/>
<rect x="9.42969" y="16.2852" width="2.77512" height="3.01535" rx="1.38756" transform="rotate(50.9422 9.42969 16.2852)" stroke="#FBBB21"/>
</g>
<defs>
<clipPath id="clip0_281_888">
<rect width="24" height="24" fill="white"/>
</clipPath>
</defs>
</svg>
