<svg width="24" height="24" viewBox="0 0 24 24" fill="none" xmlns="http://www.w3.org/2000/svg">
<path d="M6.30782 19.6833H8.7876C9.11092 19.6833 9.43226 19.7219 9.74569 19.7992L12.3659 20.4383C12.9344 20.5773 13.5267 20.5907 14.1012 20.4788L16.9982 19.9131C17.7634 19.7635 18.4675 19.3956 19.0191 18.857L21.0688 16.8558C21.6541 16.2853 21.6541 15.3595 21.0688 14.7881C20.5419 14.2735 19.7073 14.2156 19.1111 14.6519L16.7223 16.4011C16.3802 16.6521 15.9639 16.7873 15.5358 16.7873H13.2291H14.6974C15.5249 16.7873 16.1953 16.1327 16.1953 15.3247V15.0321C16.1953 14.3613 15.7276 13.7763 15.0612 13.6141L12.795 13.0609C12.4262 12.9712 12.0485 12.9258 11.6688 12.9258C10.7522 12.9258 9.09312 13.6874 9.09312 13.6874L6.30782 14.8565M2.50781 14.4514V19.9817C2.50781 20.5156 2.50781 20.7827 2.61135 20.9866C2.70244 21.166 2.84777 21.3119 3.02652 21.4033C3.22974 21.5072 3.49577 21.5073 4.02781 21.5073H4.78782C5.31986 21.5073 5.58589 21.5072 5.78911 21.4033C5.96786 21.3119 6.11319 21.166 6.20428 20.9866C6.30782 20.7827 6.30782 20.5156 6.30782 19.9817V14.4514C6.30782 13.9173 6.30782 13.6503 6.20428 13.4464C6.11319 13.2669 5.96786 13.1212 5.78911 13.0297C5.58589 12.9258 5.31986 12.9258 4.78782 12.9258H4.02781C3.49577 12.9258 3.22974 12.9258 3.02652 13.0297C2.84777 13.1212 2.70244 13.2669 2.61135 13.4464C2.50781 13.6503 2.50781 13.9173 2.50781 14.4514Z" stroke="#FBBB21" stroke-linecap="round" stroke-linejoin="round"/>
<path d="M16.7894 2.80013C16.9309 2.55752 17.2984 2.62498 17.3445 2.90203L17.7818 5.53005C17.8026 5.65474 17.8993 5.75305 18.0236 5.77587L20.8312 6.29129C21.1245 6.34514 21.1682 6.74752 20.8932 6.86297L18.4111 7.90522C18.2829 7.95905 18.2085 8.09392 18.2313 8.23107L18.6534 10.7673C18.7007 11.0515 18.3593 11.2325 18.1506 11.0339L16.0914 9.07416C16.0051 8.992 15.8784 8.96873 15.7685 9.01487L13.1475 10.1154C12.8819 10.227 12.6271 9.9365 12.7722 9.68769L14.0676 7.46671C14.1376 7.3466 14.116 7.1941 14.0153 7.09825L12.0652 5.24234C11.8492 5.03676 12.0329 4.67611 12.3262 4.72996L15.1338 5.24538C15.2582 5.2682 15.3835 5.21065 15.4471 5.10146L16.7894 2.80013Z" stroke="#FBBB21"/>
</svg>
