<svg width="24" height="24" viewBox="0 0 24 24" fill="none" xmlns="http://www.w3.org/2000/svg">
<rect x="2.49219" y="2.49219" width="19" height="10" rx="1" stroke="#FBBB21"/>
<path d="M2.5 4.49219L2.5 21.4922" stroke="#FBBB21" stroke-linecap="round"/>
<path d="M6.79613 4.946C7.09946 4.946 7.33513 4.97633 7.50313 5.037C7.67113 5.09767 7.81346 5.16067 7.93013 5.226C7.98613 5.25867 8.03046 5.28433 8.06313 5.303C8.10046 5.317 8.13546 5.324 8.16813 5.324C8.2148 5.324 8.24746 5.29833 8.26613 5.247C8.28946 5.19567 8.30813 5.11867 8.32213 5.016H8.48313C8.47846 5.114 8.47146 5.22833 8.46213 5.359C8.45746 5.48967 8.4528 5.66233 8.44813 5.877C8.44813 6.09167 8.44813 6.374 8.44813 6.724H8.28713C8.26846 6.46733 8.2078 6.21767 8.10513 5.975C8.00713 5.73233 7.86946 5.53167 7.69213 5.373C7.51946 5.21433 7.3118 5.135 7.06913 5.135C6.8638 5.135 6.69346 5.191 6.55813 5.303C6.4228 5.415 6.35513 5.576 6.35513 5.786C6.35513 5.95867 6.39713 6.108 6.48113 6.234C6.56513 6.35533 6.6958 6.48367 6.87313 6.619C7.05513 6.75433 7.29313 6.92467 7.58713 7.13C7.79713 7.27467 7.98613 7.41933 8.15413 7.564C8.3268 7.70867 8.46446 7.872 8.56713 8.054C8.6698 8.236 8.72113 8.45533 8.72113 8.712C8.72113 9.02467 8.63246 9.28367 8.45513 9.489C8.28246 9.69433 8.05146 9.84833 7.76213 9.951C7.4728 10.049 7.1578 10.098 6.81713 10.098C6.4998 10.098 6.24546 10.07 6.05413 10.014C5.86746 9.958 5.7088 9.89967 5.57813 9.839C5.47546 9.77367 5.39613 9.741 5.34013 9.741C5.29346 9.741 5.25846 9.76667 5.23513 9.818C5.21646 9.86933 5.20013 9.94633 5.18613 10.049H5.02513C5.03446 9.92767 5.03913 9.78767 5.03913 9.629C5.0438 9.46567 5.04613 9.25567 5.04613 8.999C5.0508 8.74233 5.05313 8.41567 5.05313 8.019H5.21413C5.2328 8.34567 5.28413 8.65133 5.36813 8.936C5.4568 9.22067 5.5898 9.45167 5.76713 9.629C5.94913 9.80167 6.18946 9.888 6.48813 9.888C6.6608 9.888 6.8078 9.86233 6.92913 9.811C7.05513 9.755 7.15313 9.67567 7.22313 9.573C7.29313 9.47033 7.32813 9.34667 7.32813 9.202C7.32813 9.006 7.2838 8.83567 7.19513 8.691C7.10646 8.54167 6.98513 8.404 6.83113 8.278C6.6818 8.14733 6.5068 8.01667 6.30613 7.886C6.0868 7.73667 5.88146 7.58733 5.69013 7.438C5.4988 7.28867 5.3448 7.12067 5.22813 6.934C5.11613 6.74733 5.06013 6.52567 5.06013 6.269C5.06013 5.961 5.1418 5.71133 5.30513 5.52C5.46846 5.324 5.68313 5.17933 5.94913 5.086C6.21513 4.99267 6.49746 4.946 6.79613 4.946ZM13.0841 5.044C13.0654 5.27733 13.0514 5.50367 13.0421 5.723C13.0374 5.93767 13.0351 6.10333 13.0351 6.22C13.0351 6.318 13.0374 6.41133 13.0421 6.5C13.0468 6.58867 13.0514 6.66333 13.0561 6.724H12.8951C12.8391 6.33667 12.7458 6.03333 12.6151 5.814C12.4844 5.59 12.3304 5.43367 12.1531 5.345C11.9804 5.25167 11.7984 5.205 11.6071 5.205H11.5161C11.3948 5.205 11.3038 5.21667 11.2431 5.24C11.1824 5.25867 11.1404 5.29833 11.1171 5.359C11.0984 5.41967 11.0891 5.51533 11.0891 5.646V9.398C11.0891 9.524 11.0984 9.61967 11.1171 9.685C11.1404 9.74567 11.1824 9.78767 11.2431 9.811C11.3038 9.82967 11.3948 9.839 11.5161 9.839H11.7471C11.9011 9.839 12.0621 9.79 12.2301 9.692C12.4028 9.58933 12.5614 9.41667 12.7061 9.174C12.8508 8.93133 12.9604 8.6 13.0351 8.18H13.1961C13.1821 8.348 13.1751 8.56267 13.1751 8.824C13.1751 8.94067 13.1774 9.10867 13.1821 9.328C13.1868 9.54267 13.2008 9.76667 13.2241 10C12.9861 9.99067 12.7178 9.986 12.4191 9.986C12.1204 9.98133 11.8544 9.979 11.6211 9.979C11.4951 9.979 11.3341 9.979 11.1381 9.979C10.9468 9.979 10.7368 9.98133 10.5081 9.986C10.2841 9.986 10.0554 9.98833 9.8221 9.993C9.59343 9.993 9.37643 9.99533 9.1711 10V9.86C9.31576 9.85067 9.4231 9.832 9.4931 9.804C9.5631 9.776 9.60976 9.72 9.6331 9.636C9.65643 9.552 9.6681 9.426 9.6681 9.258V5.786C9.6681 5.61333 9.65643 5.48733 9.6331 5.408C9.60976 5.324 9.56076 5.268 9.4861 5.24C9.4161 5.20733 9.3111 5.18867 9.1711 5.184V5.044C9.37643 5.04867 9.59343 5.05333 9.8221 5.058C10.0554 5.058 10.2841 5.06033 10.5081 5.065C10.7368 5.065 10.9468 5.065 11.1381 5.065C11.3341 5.065 11.4951 5.065 11.6211 5.065C11.8358 5.065 12.0784 5.065 12.3491 5.065C12.6244 5.06033 12.8694 5.05333 13.0841 5.044ZM12.0691 7.438C12.0691 7.438 12.0691 7.46133 12.0691 7.508C12.0691 7.55467 12.0691 7.578 12.0691 7.578H10.8791C10.8791 7.578 10.8791 7.55467 10.8791 7.508C10.8791 7.46133 10.8791 7.438 10.8791 7.438H12.0691ZM12.2721 6.514C12.2534 6.78 12.2441 6.983 12.2441 7.123C12.2488 7.263 12.2511 7.39133 12.2511 7.508C12.2511 7.62467 12.2534 7.753 12.2581 7.893C12.2628 8.033 12.2744 8.236 12.2931 8.502H12.1321C12.1041 8.32933 12.0458 8.173 11.9571 8.033C11.8731 7.893 11.7634 7.78333 11.6281 7.704C11.4928 7.62 11.3364 7.578 11.1591 7.578V7.438C11.2898 7.438 11.4088 7.41 11.5161 7.354C11.6234 7.298 11.7168 7.22333 11.7961 7.13C11.8801 7.03667 11.9478 6.93633 11.9991 6.829C12.0551 6.72167 12.0924 6.61667 12.1111 6.514H12.2721ZM16.4258 4.946C16.9532 4.946 17.4152 5.04633 17.8118 5.247C18.2085 5.44767 18.5165 5.737 18.7358 6.115C18.9552 6.48833 19.0648 6.94333 19.0648 7.48C19.0648 8.00267 18.9528 8.46 18.7288 8.852C18.5048 9.244 18.1922 9.54967 17.7908 9.769C17.3942 9.98833 16.9368 10.098 16.4188 10.098C15.8915 10.098 15.4295 9.99767 15.0328 9.797C14.6362 9.59633 14.3282 9.307 14.1088 8.929C13.8895 8.551 13.7798 8.096 13.7798 7.564C13.7798 7.04133 13.8918 6.584 14.1158 6.192C14.3445 5.8 14.6572 5.49433 15.0538 5.275C15.4505 5.05567 15.9078 4.946 16.4258 4.946ZM16.3978 5.072C16.1645 5.072 15.9615 5.177 15.7888 5.387C15.6162 5.597 15.4832 5.88633 15.3898 6.255C15.2965 6.62367 15.2498 7.05067 15.2498 7.536C15.2498 8.03067 15.3035 8.46233 15.4108 8.831C15.5182 9.195 15.6628 9.47733 15.8448 9.678C16.0268 9.874 16.2275 9.972 16.4468 9.972C16.6802 9.972 16.8832 9.867 17.0558 9.657C17.2285 9.447 17.3615 9.15767 17.4548 8.789C17.5482 8.41567 17.5948 7.98867 17.5948 7.508C17.5948 7.00867 17.5412 6.577 17.4338 6.213C17.3265 5.849 17.1818 5.569 16.9998 5.373C16.8178 5.17233 16.6172 5.072 16.3978 5.072Z" fill="#FBBB21"/>
</svg>
