<svg width="24" height="24" viewBox="0 0 24 24" fill="none" xmlns="http://www.w3.org/2000/svg">
<circle cx="3.74219" cy="19" r="1.25" stroke="#FBBB21"/>
<circle cx="11.9922" cy="18.9922" r="1.5" stroke="#FBBB21"/>
<line x1="5.14844" y1="19" x2="10.1484" y2="19" stroke="#FBBB21"/>
<path d="M21.5 19.5C21.7761 19.5 22 19.2761 22 19C22 18.7239 21.7761 18.5 21.5 18.5V19.5ZM13.7969 19.5H21.5V18.5H13.7969V19.5Z" fill="#FBBB21"/>
<path d="M21.5 19.0078L20 17.5078" stroke="#FBBB21" stroke-linecap="round"/>
<path d="M21.5 19.0312L20 20.5312" stroke="#FBBB21" stroke-linecap="round"/>
<path d="M11.9878 9.02344C11.9989 9.02344 12.0101 9.02344 12.0234 9.02344C12.0279 9.02344 12.0323 9.02344 12.0368 9.02344C12.0435 9.02344 12.0524 9.02344 12.0591 9.02344C12.7114 9.01095 13.2391 8.75364 13.6287 8.26152C14.4858 7.17736 14.3433 5.31879 14.3278 5.14142C14.2721 3.80995 13.711 3.17294 13.248 2.87567C12.9029 2.65334 12.4999 2.53343 12.0502 2.52344H12.0346C12.0323 2.52344 12.0279 2.52344 12.0257 2.52344H12.0123C11.7652 2.52344 11.2798 2.5684 10.8145 2.86567C10.347 3.16295 9.77701 3.79996 9.72135 5.14142C9.70576 5.31879 9.56327 7.17736 10.4204 8.26152C10.8078 8.75364 11.3355 9.01095 11.9878 9.02344Z" stroke="#FBBB21"/>
<path d="M14.038 9.95564C14.0489 9.9632 15.0662 10.6181 16.2896 10.9077C16.2978 10.9102 16.3086 10.9128 16.3167 10.9153C17.4941 11.2881 17.5294 12.4542 17.5456 12.9529C17.5456 12.9756 17.5483 12.9957 17.5483 13.0159C17.5483 13.0184 17.5483 13.0209 17.5483 13.0235C17.5511 13.1544 17.5538 13.8269 17.4181 14.1619C17.391 14.2274 17.3395 14.2828 17.2771 14.3206C17.1957 14.3685 15.2452 15.5246 11.9817 15.5246C8.71827 15.5246 6.76779 14.371 6.6864 14.3206C6.6213 14.2828 6.57247 14.2274 6.54534 14.1619C6.40156 13.8244 6.40428 13.1519 6.40699 13.0209C6.40699 13.0184 6.40699 13.0159 6.40699 13.0134C6.4097 12.9932 6.4097 12.9731 6.4097 12.9504C6.42598 12.4542 6.46124 11.2881 7.63859 10.9128C7.64673 10.9102 7.65486 10.9077 7.66572 10.9052C8.8946 10.6156 9.90647 9.96068 9.91732 9.95312" stroke="#FBBB21" stroke-linecap="round"/>
</svg>
