<svg width="24" height="24" viewBox="0 0 24 24" fill="none" xmlns="http://www.w3.org/2000/svg">
<path d="M15.2801 14.7093L15.0424 11.3934C14.95 10.1028 13.9598 9.05675 12.6762 8.89363C11.1881 8.70452 9.82858 9.75783 9.6399 11.246C9.47707 12.5302 10.2433 13.7508 11.4706 14.1623L14.6224 15.2191C14.9607 15.3326 15.3056 15.0652 15.2801 14.7093Z" stroke="#FBBB21"/>
<path d="M5.92701 5.72877C4.89374 6.76204 4.16116 8.04828 3.79735 9.45011C3.66774 9.94951 4.06843 10.4062 4.58438 10.4062C4.95336 10.4062 5.28072 10.169 5.41394 9.82493C5.70825 9.06478 6.28715 7.7428 7 7C7.77915 6.18812 9.23009 5.53488 10.0347 5.21461C10.3758 5.07884 10.6094 4.75264 10.6094 4.38553C10.6094 3.86759 10.1505 3.46563 9.64931 3.59642C8.24623 3.96259 6.9597 4.69608 5.92701 5.72877Z" stroke="#FBBB21" stroke-linecap="round"/>
<path d="M18.6824 5.72877C19.7156 6.76204 20.4482 8.04828 20.812 9.45011C20.9416 9.94951 20.5409 10.4062 20.025 10.4062C19.656 10.4062 19.3287 10.169 19.1954 9.82493C18.9011 9.06478 18.3222 7.7428 17.6094 7C16.8302 6.18812 15.3793 5.53488 14.5747 5.21461C14.2336 5.07884 14 4.75264 14 4.38553C14 3.86759 14.4589 3.46563 14.9601 3.59642C16.3631 3.96259 17.6497 4.69608 18.6824 5.72877Z" stroke="#FBBB21" stroke-linecap="round"/>
<path d="M19.3933 19.2869C20.4266 18.2536 21.1591 16.9673 21.523 15.5655C21.6526 15.0661 21.2519 14.6094 20.7359 14.6094C20.3669 14.6094 20.0396 14.8466 19.9064 15.1907C19.6121 15.9508 19.0332 17.2728 18.3203 18.0156C17.5412 18.8275 16.0902 19.4807 15.2856 19.801C14.9445 19.9368 14.7109 20.263 14.7109 20.6301C14.7109 21.148 15.1698 21.55 15.671 21.4192C17.0741 21.053 18.3606 20.3195 19.3933 19.2869Z" stroke="#FBBB21" stroke-linecap="round"/>
<path d="M5.92698 18.0837C6.98401 19.1407 8.307 19.8843 9.74869 20.2413C10.1971 20.3524 10.6048 19.9915 10.5996 19.5296C10.5961 19.2116 10.3943 18.9295 10.0996 18.8101C9.32222 18.4953 7.81807 17.8181 7 17C6.18265 16.1827 5.50589 14.6804 5.19069 13.9024C5.07107 13.6072 4.78683 13.4062 4.46826 13.4062C4.01375 13.4062 3.66108 13.8083 3.76898 14.2498C4.12222 15.6953 4.86611 17.0228 5.92698 18.0837Z" stroke="#FBBB21" stroke-linecap="round"/>
</svg>
