<svg width="24" height="24" viewBox="0 0 24 24" fill="none" xmlns="http://www.w3.org/2000/svg">
<mask id="mask0_169_692" style="mask-type:alpha" maskUnits="userSpaceOnUse" x="1" y="5" width="21" height="12">
<path fill-rule="evenodd" clip-rule="evenodd" d="M1.99499 11.642C1.97909 11.4909 2.03202 11.3344 2.15192 11.223C5.99133 7.65603 8.88915 5.71261 11.9017 5.70316C14.9129 5.69372 17.8705 7.61708 21.8288 11.2196C21.9512 11.331 22.0056 11.4892 21.9895 11.642C22.0084 11.82 21.9309 12.0023 21.7722 12.1096C17.7987 14.7952 14.8622 16.2022 11.9021 16.1953C8.94076 16.1884 6.06326 14.7666 2.20829 12.1069C2.05208 11.9991 1.97624 11.8183 1.99499 11.642Z" fill="#FBBB21"/>
</mask>
<g mask="url(#mask0_169_692)">
<path fill-rule="evenodd" clip-rule="evenodd" d="M12 16C14.7614 16 17 13.7614 17 11C17 8.23858 14.7614 6 12 6C9.23858 6 7 8.23858 7 11C7 13.7614 9.23858 16 12 16ZM12 17C15.3137 17 18 14.3137 18 11C18 7.68629 15.3137 5 12 5C8.68629 5 6 7.68629 6 11C6 14.3137 8.68629 17 12 17Z" fill="#FBBB21"/>
<path d="M14 11C14 12.1046 13.1046 13 12 13C10.8954 13 10 12.1046 10 11C10 9.89543 10.8954 9 12 9C13.1046 9 14 9.89543 14 11Z" fill="#FBBB21"/>
<path fill-rule="evenodd" clip-rule="evenodd" d="M12 12C12.5523 12 13 11.5523 13 11C13 10.4477 12.5523 10 12 10C11.4477 10 11 10.4477 11 11C11 11.5523 11.4477 12 12 12ZM12 13C13.1046 13 14 12.1046 14 11C14 9.89543 13.1046 9 12 9C10.8954 9 10 9.89543 10 11C10 12.1046 10.8954 13 12 13Z" fill="#FBBB21"/>
<path fill-rule="evenodd" clip-rule="evenodd" d="M3.22696 11.592C6.8673 8.26327 9.41195 6.71097 11.9049 6.70315C14.399 6.69533 16.9984 8.23292 20.7486 11.5916C17.0415 14.0514 14.4348 15.2012 11.9045 15.1953C9.37564 15.1894 6.82412 14.029 3.22696 11.592ZM1.99499 11.642C1.97909 11.4909 2.03202 11.3344 2.15192 11.223C5.99133 7.65603 8.88915 5.71261 11.9017 5.70316C14.9129 5.69372 17.8705 7.61708 21.8288 11.2196C21.9512 11.331 22.0056 11.4892 21.9895 11.642C22.0084 11.82 21.9309 12.0023 21.7722 12.1096C17.7987 14.7952 14.8622 16.2022 11.9021 16.1953C8.94076 16.1884 6.06326 14.7666 2.20829 12.1069C2.05208 11.9991 1.97624 11.8183 1.99499 11.642Z" fill="#FBBB21"/>
</g>
</svg>
