<svg width="24" height="24" viewBox="0 0 24 24" fill="none" xmlns="http://www.w3.org/2000/svg">
<path d="M11.98 9.09375C11.9911 9.09375 12.0023 9.09375 12.0156 9.09375C12.0201 9.09375 12.0245 9.09375 12.029 9.09375C12.0357 9.09375 12.0446 9.09375 12.0513 9.09375C12.7036 9.08126 13.2312 8.82396 13.6209 8.33184C14.478 7.24767 14.3355 5.3891 14.3199 5.21174C14.2643 3.88026 13.7032 3.24325 13.2401 2.94598C12.8951 2.72365 12.4921 2.60374 12.0423 2.59375H12.0268C12.0245 2.59375 12.0201 2.59375 12.0179 2.59375H12.0045C11.7574 2.59375 11.272 2.63872 10.8067 2.93599C10.3392 3.23326 9.76919 3.87027 9.71353 5.21174C9.69795 5.3891 9.55546 7.24767 10.4126 8.33184C10.8 8.82396 11.3277 9.08126 11.98 9.09375Z" stroke="#FBBB21"/>
<path d="M14.038 10.026C14.0489 10.0335 15.0662 10.6884 16.2896 10.978C16.2978 10.9806 16.3086 10.9831 16.3167 10.9856C17.4941 11.3584 17.5294 12.5245 17.5456 13.0232C17.5456 13.0459 17.5483 13.0661 17.5483 13.0862C17.5483 13.0887 17.5483 13.0912 17.5483 13.0938C17.5511 13.2247 17.5538 13.8972 17.4181 14.2322C17.391 14.2977 17.3395 14.3531 17.2771 14.3909C17.1957 14.4388 15.2452 15.5949 11.9817 15.5949C8.71827 15.5949 6.76779 14.4413 6.6864 14.3909C6.6213 14.3531 6.57247 14.2977 6.54534 14.2322C6.40156 13.8947 6.40428 13.2222 6.40699 13.0912C6.40699 13.0887 6.40699 13.0862 6.40699 13.0837C6.4097 13.0635 6.4097 13.0434 6.4097 13.0207C6.42598 12.5245 6.46124 11.3584 7.63859 10.9831C7.64673 10.9806 7.65486 10.978 7.66572 10.9755C8.8946 10.6859 9.90647 10.031 9.91732 10.0234" stroke="#FBBB21" stroke-linecap="round"/>
<circle cx="3.74219" cy="19" r="1.25" stroke="#FBBB21"/>
<circle cx="11.9922" cy="18.9922" r="1.5" stroke="#FBBB21"/>
<circle cx="20.25" cy="19" r="1.25" stroke="#FBBB21"/>
<line x1="5.14844" y1="19" x2="10.1484" y2="19" stroke="#FBBB21"/>
<line x1="13.7969" y1="19" x2="18.7969" y2="19" stroke="#FBBB21"/>
</svg>
