<svg width="24" height="24" viewBox="0 0 24 24" fill="none" xmlns="http://www.w3.org/2000/svg">
<path d="M7.99394 10.2735L7.92225 10.6278C7.54412 12.4967 8.53766 14.3726 10.2961 15.1099L15.5638 17.3187C15.8929 17.4567 16.2564 17.2154 16.2571 16.8586L16.2684 11.1464C16.2722 9.24053 14.9308 7.59668 13.0628 7.21817L12.7089 7.14645C10.5433 6.70764 8.43214 8.10781 7.99394 10.2735Z" stroke="#FBBB21"/>
<path d="M3.60938 10.4063C3.84859 8.63613 4.6627 6.99307 5.92701 5.72877C7.19131 4.46447 8.83608 3.64864 10.6094 3.40625" stroke="#FBBB21" stroke-linecap="round"/>
<path d="M13.6094 3.40625C15.4 3.66554 17.0542 4.49052 18.3185 5.75482C19.5828 7.01912 20.3875 8.65303 20.6094 10.4062" stroke="#FBBB21" stroke-linecap="round"/>
<path d="M10.6094 20.4062C8.83607 20.1638 7.19128 19.348 5.92698 18.0837C4.66268 16.8194 3.84857 15.1764 3.60938 13.4062" stroke="#FBBB21" stroke-linecap="round"/>
<path d="M21.6094 14.4062C21.3831 16.1637 20.5761 17.7998 19.3117 19.0641C18.0474 20.3284 16.3956 21.1512 14.6094 21.4062" stroke="#FBBB21" stroke-linecap="round"/>
</svg>
