<svg width="24" height="24" viewBox="0 0 24 24" fill="none" xmlns="http://www.w3.org/2000/svg">
<path d="M4.3812 16.4614C4.42417 16.4376 4.46408 16.4086 4.5 16.3751C4.53592 16.4086 4.57583 16.4376 4.6188 16.4614C4.59803 16.5059 4.58278 16.5528 4.57342 16.6011C4.52467 16.5951 4.47533 16.5951 4.42658 16.6011C4.41722 16.5528 4.40197 16.5059 4.3812 16.4614Z" stroke="#FBBB21"/>
<path d="M16.3812 4.4614C16.4242 4.4376 16.4641 4.4086 16.5 4.37509C16.5359 4.4086 16.5758 4.4376 16.6188 4.4614C16.598 4.50591 16.5828 4.55283 16.5734 4.60105C16.5247 4.59506 16.4753 4.59506 16.4266 4.60105C16.4172 4.55283 16.402 4.50591 16.3812 4.4614Z" stroke="#FBBB21"/>
<mask id="path-3-inside-1_286_284" fill="white">
<path d="M6.90489 17.2927C6.93483 17.2006 7.06517 17.2006 7.09511 17.2927L7.20206 17.6219C7.21545 17.6631 7.25385 17.691 7.29717 17.691H7.64329C7.74016 17.691 7.78044 17.8149 7.70207 17.8719L7.42205 18.0753C7.387 18.1008 7.37234 18.1459 7.38572 18.1871L7.49268 18.5163C7.52261 18.6084 7.41717 18.6851 7.3388 18.6281L7.05878 18.4247C7.02373 18.3992 6.97627 18.3992 6.94122 18.4247L6.6612 18.6281C6.58283 18.6851 6.47739 18.6084 6.50732 18.5163L6.61428 18.1871C6.62766 18.1459 6.613 18.1008 6.57795 18.0753L6.29793 17.8719C6.21956 17.8149 6.25984 17.691 6.35671 17.691H6.70283C6.74615 17.691 6.78455 17.6631 6.79794 17.6219L6.90489 17.2927Z"/>
</mask>
<path d="M6.90489 17.2927C6.93483 17.2006 7.06517 17.2006 7.09511 17.2927L7.20206 17.6219C7.21545 17.6631 7.25385 17.691 7.29717 17.691H7.64329C7.74016 17.691 7.78044 17.8149 7.70207 17.8719L7.42205 18.0753C7.387 18.1008 7.37234 18.1459 7.38572 18.1871L7.49268 18.5163C7.52261 18.6084 7.41717 18.6851 7.3388 18.6281L7.05878 18.4247C7.02373 18.3992 6.97627 18.3992 6.94122 18.4247L6.6612 18.6281C6.58283 18.6851 6.47739 18.6084 6.50732 18.5163L6.61428 18.1871C6.62766 18.1459 6.613 18.1008 6.57795 18.0753L6.29793 17.8719C6.21956 17.8149 6.25984 17.691 6.35671 17.691H6.70283C6.74615 17.691 6.78455 17.6631 6.79794 17.6219L6.90489 17.2927Z" fill="#FBBB21"/>
<path d="M6.29793 17.8719L6.88572 17.0629L6.29793 17.8719ZM6.50732 18.5163L5.55626 18.2073L6.50732 18.5163ZM7.3388 18.6281L6.75101 19.4371L7.3388 18.6281ZM7.42205 18.0753L6.83426 17.2663L7.42205 18.0753ZM7.38572 18.1871L6.43467 18.4961L7.38572 18.1871ZM7.20206 17.6219L6.25101 17.9309L7.20206 17.6219ZM7.09511 17.2927L6.14405 17.6017L7.09511 17.2927ZM6.90489 17.2927L5.95384 16.9837L6.90489 17.2927ZM6.14405 17.6017L6.25101 17.9309L8.15312 17.3129L8.04616 16.9837L6.14405 17.6017ZM7.29717 18.691H7.64329V16.691H7.29717V18.691ZM7.11428 17.0629L6.83426 17.2663L8.00983 18.8843L8.28985 18.6809L7.11428 17.0629ZM6.43467 18.4961L6.54162 18.8253L8.44374 18.2073L8.33678 17.8781L6.43467 18.4961ZM7.92658 17.8191L7.64656 17.6157L6.47099 19.2337L6.75101 19.4371L7.92658 17.8191ZM6.35344 17.6157L6.07342 17.8191L7.24899 19.4371L7.52901 19.2337L6.35344 17.6157ZM7.45838 18.8253L7.56533 18.4961L5.66322 17.8781L5.55626 18.2073L7.45838 18.8253ZM7.16574 17.2663L6.88572 17.0629L5.71015 18.6809L5.99016 18.8843L7.16574 17.2663ZM6.35671 18.691H6.70283V16.691H6.35671V18.691ZM7.74899 17.9309L7.85595 17.6017L5.95384 16.9837L5.84688 17.3129L7.74899 17.9309ZM6.70283 18.691C7.17938 18.691 7.60173 18.3841 7.74899 17.9309L5.84688 17.3129C5.96737 16.942 6.31293 16.691 6.70283 16.691V18.691ZM6.88572 17.0629C7.59106 17.5753 7.22856 18.691 6.35671 18.691V16.691C5.29112 16.691 4.84806 18.0546 5.71015 18.6809L6.88572 17.0629ZM7.56533 18.4961C7.7126 18.0429 7.55127 17.5464 7.16574 17.2663L5.99016 18.8843C5.67473 18.6552 5.54273 18.2489 5.66322 17.8781L7.56533 18.4961ZM6.07342 17.8191C6.77877 17.3066 7.72779 17.9962 7.45838 18.8253L5.55626 18.2073C5.22698 19.2207 6.3869 20.0635 7.24899 19.4371L6.07342 17.8191ZM7.64656 17.6157C7.26103 17.3355 6.73897 17.3355 6.35344 17.6157L7.52901 19.2337C7.21357 19.4629 6.78643 19.4629 6.47099 19.2337L7.64656 17.6157ZM6.54162 18.8253C6.27221 17.9962 7.22123 17.3066 7.92658 17.8191L6.75101 19.4371C7.6131 20.0635 8.77302 19.2207 8.44374 18.2073L6.54162 18.8253ZM6.83426 17.2663C6.44873 17.5464 6.2874 18.0429 6.43467 18.4961L8.33678 17.8781C8.45727 18.2489 8.32527 18.6552 8.00983 18.8843L6.83426 17.2663ZM7.64329 18.691C6.77143 18.691 6.40894 17.5753 7.11428 17.0629L8.28985 18.6809C9.15193 18.0546 8.70889 16.691 7.64329 16.691V18.691ZM6.25101 17.9309C6.39827 18.3841 6.82062 18.691 7.29717 18.691V16.691C7.68707 16.691 8.03263 16.942 8.15312 17.3129L6.25101 17.9309ZM8.04616 16.9837C7.71688 15.9703 6.28313 15.9702 5.95384 16.9837L7.85595 17.6017C7.58653 18.4309 6.41346 18.4309 6.14405 17.6017L8.04616 16.9837Z" fill="#FBBB21" mask="url(#path-3-inside-1_286_284)"/>
<mask id="path-5-inside-2_286_284" fill="white">
<path d="M18.9049 6.2927C18.9348 6.20057 19.0652 6.20057 19.0951 6.29271L19.2021 6.62188C19.2155 6.66309 19.2538 6.69098 19.2972 6.69098H19.6433C19.7402 6.69098 19.7804 6.81494 19.7021 6.87188L19.422 7.07533C19.387 7.10079 19.3723 7.14593 19.3857 7.18713L19.4927 7.51631C19.5226 7.60844 19.4172 7.68506 19.3388 7.62812L19.0588 7.42467C19.0237 7.39921 18.9763 7.39921 18.9412 7.42467L18.6612 7.62812C18.5828 7.68506 18.4774 7.60844 18.5073 7.51631L18.6143 7.18713C18.6277 7.14593 18.613 7.10079 18.578 7.07533L18.2979 6.87188C18.2196 6.81494 18.2598 6.69098 18.3567 6.69098H18.7028C18.7462 6.69098 18.7845 6.66309 18.7979 6.62188L18.9049 6.2927Z"/>
</mask>
<path d="M18.9049 6.2927C18.9348 6.20057 19.0652 6.20057 19.0951 6.29271L19.2021 6.62188C19.2155 6.66309 19.2538 6.69098 19.2972 6.69098H19.6433C19.7402 6.69098 19.7804 6.81494 19.7021 6.87188L19.422 7.07533C19.387 7.10079 19.3723 7.14593 19.3857 7.18713L19.4927 7.51631C19.5226 7.60844 19.4172 7.68506 19.3388 7.62812L19.0588 7.42467C19.0237 7.39921 18.9763 7.39921 18.9412 7.42467L18.6612 7.62812C18.5828 7.68506 18.4774 7.60844 18.5073 7.51631L18.6143 7.18713C18.6277 7.14593 18.613 7.10079 18.578 7.07533L18.2979 6.87188C18.2196 6.81494 18.2598 6.69098 18.3567 6.69098H18.7028C18.7462 6.69098 18.7845 6.66309 18.7979 6.62188L18.9049 6.2927Z" fill="#FBBB21"/>
<path d="M18.2979 6.87188L18.8857 6.06287L18.2979 6.87188ZM18.5073 7.51631L17.5563 7.20729L18.5073 7.51631ZM19.3388 7.62812L18.751 8.43713L19.3388 7.62812ZM19.422 7.07533L18.8343 6.26631L19.422 7.07533ZM19.3857 7.18713L18.4347 7.49615L19.3857 7.18713ZM19.2021 6.62188L18.251 6.9309L19.2021 6.62188ZM19.0951 6.29271L18.144 6.60172L19.0951 6.29271ZM18.9049 6.2927L17.9538 5.98369L18.9049 6.2927ZM18.144 6.60172L18.251 6.9309L20.1531 6.31287L20.0462 5.98369L18.144 6.60172ZM19.2972 7.69098H19.6433V5.69098H19.2972V7.69098ZM19.1143 6.06287L18.8343 6.26631L20.0098 7.88435L20.2899 7.6809L19.1143 6.06287ZM18.4347 7.49615L18.5416 7.82533L20.4437 7.20729L20.3368 6.87812L18.4347 7.49615ZM19.9266 6.8191L19.6466 6.61565L18.471 8.23369L18.751 8.43713L19.9266 6.8191ZM18.3534 6.61565L18.0734 6.8191L19.249 8.43713L19.529 8.23369L18.3534 6.61565ZM19.4584 7.82533L19.5653 7.49615L17.6632 6.87812L17.5563 7.20729L19.4584 7.82533ZM19.1657 6.26631L18.8857 6.06287L17.7101 7.6809L17.9902 7.88435L19.1657 6.26631ZM18.3567 7.69098H18.7028V5.69098H18.3567V7.69098ZM19.749 6.9309L19.856 6.60172L17.9538 5.98369L17.8469 6.31287L19.749 6.9309ZM18.7028 7.69098C19.1794 7.69098 19.6017 7.38413 19.749 6.9309L17.8469 6.31287C17.9674 5.94205 18.3129 5.69098 18.7028 5.69098V7.69098ZM18.8857 6.06287C19.5911 6.57533 19.2286 7.69098 18.3567 7.69098V5.69098C17.2911 5.69098 16.8481 7.05456 17.7101 7.6809L18.8857 6.06287ZM19.5653 7.49615C19.7126 7.04293 19.5513 6.54642 19.1657 6.26631L17.9902 7.88435C17.6747 7.65517 17.5427 7.24893 17.6632 6.87812L19.5653 7.49615ZM18.0734 6.8191C18.7788 6.30663 19.7278 6.99616 19.4584 7.82533L17.5563 7.20729C17.227 8.22073 18.3869 9.06348 19.249 8.43713L18.0734 6.8191ZM19.6466 6.61565C19.261 6.33554 18.739 6.33555 18.3534 6.61565L19.529 8.23369C19.2136 8.46287 18.7864 8.46287 18.471 8.23369L19.6466 6.61565ZM18.5416 7.82533C18.2722 6.99616 19.2212 6.30663 19.9266 6.8191L18.751 8.43713C19.6131 9.06348 20.773 8.22073 20.4437 7.20729L18.5416 7.82533ZM18.8343 6.26631C18.4487 6.54642 18.2874 7.04293 18.4347 7.49615L20.3368 6.87812C20.4573 7.24893 20.3253 7.65517 20.0098 7.88435L18.8343 6.26631ZM19.6433 7.69098C18.7714 7.69098 18.4089 6.57533 19.1143 6.06287L20.2899 7.6809C21.1519 7.05456 20.7089 5.69098 19.6433 5.69098V7.69098ZM18.251 6.9309C18.3983 7.38413 18.8206 7.69098 19.2972 7.69098V5.69098C19.6871 5.69098 20.0326 5.94205 20.1531 6.31287L18.251 6.9309ZM20.0462 5.98369C19.7169 4.97025 18.2831 4.97024 17.9538 5.98369L19.856 6.60172C19.5865 7.43091 18.4135 7.4309 18.144 6.60172L20.0462 5.98369Z" fill="#FBBB21" mask="url(#path-5-inside-2_286_284)"/>
<mask id="mask0_286_284" style="mask-type:alpha" maskUnits="userSpaceOnUse" x="1" y="5" width="21" height="12">
<path fill-rule="evenodd" clip-rule="evenodd" d="M1.99499 11.642C1.97909 11.4909 2.03202 11.3344 2.15192 11.223C5.99133 7.65603 8.88915 5.71261 11.9017 5.70316C14.9129 5.69372 17.8705 7.61708 21.8288 11.2196C21.9512 11.331 22.0056 11.4892 21.9895 11.642C22.0084 11.82 21.9309 12.0023 21.7722 12.1096C17.7987 14.7952 14.8622 16.2022 11.9021 16.1953C8.94076 16.1884 6.06326 14.7666 2.20829 12.1069C2.05208 11.9991 1.97624 11.8183 1.99499 11.642Z" fill="#FBBB21"/>
</mask>
<g mask="url(#mask0_286_284)">
<path fill-rule="evenodd" clip-rule="evenodd" d="M12 16C14.7614 16 17 13.7614 17 11C17 8.23858 14.7614 6 12 6C9.23858 6 7 8.23858 7 11C7 13.7614 9.23858 16 12 16ZM12 17C15.3137 17 18 14.3137 18 11C18 7.68629 15.3137 5 12 5C8.68629 5 6 7.68629 6 11C6 14.3137 8.68629 17 12 17Z" fill="#FBBB21"/>
<path fill-rule="evenodd" clip-rule="evenodd" d="M3.22696 11.592C6.8673 8.26327 9.41195 6.71097 11.9049 6.70315C14.399 6.69533 16.9984 8.23292 20.7486 11.5916C17.0415 14.0514 14.4348 15.2012 11.9045 15.1953C9.37564 15.1894 6.82412 14.029 3.22696 11.592ZM1.99499 11.642C1.97909 11.4909 2.03202 11.3344 2.15192 11.223C5.99133 7.65603 8.88915 5.71261 11.9017 5.70316C14.9129 5.69372 17.8705 7.61708 21.8288 11.2196C21.9512 11.331 22.0056 11.4892 21.9895 11.642C22.0084 11.82 21.9309 12.0023 21.7722 12.1096C17.7987 14.7952 14.8622 16.2022 11.9021 16.1953C8.94076 16.1884 6.06326 14.7666 2.20829 12.1069C2.05208 11.9991 1.97624 11.8183 1.99499 11.642Z" fill="#FBBB21"/>
<path d="M11.9643 8.58509C11.9834 8.55116 12.0322 8.55116 12.0514 8.58509L12.7901 9.8957C12.7972 9.90836 12.8095 9.91729 12.8238 9.92017L14.2985 10.2177C14.3367 10.2254 14.3518 10.2719 14.3254 10.3006L13.3072 11.4081C13.2974 11.4188 13.2927 11.4333 13.2944 11.4477L13.4671 12.9422C13.4716 12.9809 13.432 13.0096 13.3966 12.9934L12.0286 12.3673C12.0154 12.3613 12.0002 12.3613 11.987 12.3673L10.619 12.9934C10.5836 13.0096 10.5441 12.9809 10.5485 12.9422L10.7213 11.4477C10.7229 11.4333 10.7182 11.4188 10.7084 11.4081L9.69021 10.3006C9.66385 10.2719 9.67895 10.2254 9.71713 10.2177L11.1919 9.92017C11.2061 9.91729 11.2184 9.90836 11.2255 9.8957L11.9643 8.58509Z" stroke="#FBBB21"/>
</g>
</svg>
